HIERARCHY
ROOT root
{
	OFFSET 0.000000 0.000000 0.000000
	CHANNELS 6 Xposition Yposition Zposition Zrotation Yrotation Xrotation
	JOINT lhip
	{
		OFFSET 0.058581 -0.082280 -0.017664
		CHANNELS 3 Zrotation Yrotation Xrotation
		JOINT lknee
		{
			OFFSET 0.043451 -0.386469 0.008037
			CHANNELS 3 Zrotation Yrotation Xrotation
			JOINT lankle
			{
				OFFSET -0.014790 -0.426874 -0.037428
				CHANNELS 3 Zrotation Yrotation Xrotation
				JOINT ltoe
				{
					OFFSET 0.041054 -0.060286 0.122042
					CHANNELS 3 Zrotation Yrotation Xrotation
					End Site
					{
						OFFSET 0.000000 0.000000 0.000000
					}
				}
			}
		}
	}
	JOINT rhip
	{
		OFFSET -0.060310 -0.090513 -0.013543
		CHANNELS 3 Zrotation Yrotation Xrotation
		JOINT rknee
		{
			OFFSET -0.043257 -0.383688 -0.004843
			CHANNELS 3 Zrotation Yrotation Xrotation
			JOINT rankle
			{
				OFFSET 0.019056 -0.420046 -0.034562
				CHANNELS 3 Zrotation Yrotation Xrotation
				JOINT rtoe
				{
					OFFSET -0.034840 -0.062106 0.130323
					CHANNELS 3 Zrotation Yrotation Xrotation
					End Site
					{
						OFFSET 0.000000 0.000000 0.000000
					}
				}
			}
		}
	}
	JOINT lowerback
	{
		OFFSET 0.004439 0.124404 -0.038385
		CHANNELS 3 Zrotation Yrotation Xrotation
		JOINT upperback
		{
			OFFSET 0.004488 0.137956 0.026820
			CHANNELS 3 Zrotation Yrotation Xrotation
			JOINT chest
			{
				OFFSET -0.002265 0.056032 0.002855
				CHANNELS 3 Zrotation Yrotation Xrotation
				JOINT lowerneck
				{
					OFFSET -0.013390 0.211636 -0.033468
					CHANNELS 3 Zrotation Yrotation Xrotation
					JOINT upperneck
					{
						OFFSET 0.010113 0.088937 0.050410
						CHANNELS 3 Zrotation Yrotation Xrotation
						End Site
						{
							OFFSET 0.000000 0.000000 0.000000
						}
					}
				}
				JOINT lclavicle
				{
					OFFSET 0.071702 0.114000 -0.018898
					CHANNELS 3 Zrotation Yrotation Xrotation
					JOINT lshoulder
					{
						OFFSET 0.122921 0.045205 -0.019046
						CHANNELS 3 Zrotation Yrotation Xrotation
						JOINT lelbow
						{
							OFFSET 0.255332 -0.015649 -0.022946
							CHANNELS 3 Zrotation Yrotation Xrotation
							JOINT lwrist
							{
								OFFSET 0.265709 0.012698 -0.007375
								CHANNELS 3 Zrotation Yrotation Xrotation
								End Site
								{
									OFFSET 0.000000 0.000000 0.000000
								}
							}
						}
					}
				}
				JOINT rclavicle
				{
					OFFSET -0.082954 0.112472 -0.023707
					CHANNELS 3 Zrotation Yrotation Xrotation
					JOINT rshoulder
					{
						OFFSET -0.113228 0.046853 -0.008472
						CHANNELS 3 Zrotation Yrotation Xrotation
						JOINT relbow
						{
							OFFSET -0.260127 -0.014369 -0.031269
							CHANNELS 3 Zrotation Yrotation Xrotation
							JOINT rwrist
							{
								OFFSET -0.269108 0.006794 -0.006027
								CHANNELS 3 Zrotation Yrotation Xrotation
								End Site
								{
									OFFSET 0.000000 0.000000 0.000000
								}
							}
						}
					}
				}
			}
		}
	}
}
MOTION
Frames: 17
Frame Time: 0.033333
-2.024243 0.674220 0.923457 95.383408 -2.097709 101.492658 -2.426287 -2.916459 -10.941203 -9.567458 -1.893087 71.530743 -6.391176 4.441842 -1.095837 0.000000 -0.000000 0.000000 -1.614608 2.792674 -33.377197 -2.203448 -8.881476 54.142043 -1.778224 -8.283790 -31.171414 0.000000 -0.000000 0.000000 2.722855 -4.696395 30.069560 2.704662 0.213666 -4.392800 0.615617 -1.938583 -0.322668 -5.546941 0.408687 -23.185038 -1.450187 -2.929917 -5.441265 -28.590474 0.123356 -0.581151 -51.873770 -5.154226 13.352757 54.088310 -79.474956 -38.178710 13.248642 -15.829648 -24.354239 28.926480 -0.771349 1.429670 50.996265 -12.089772 10.605206 -41.861174 62.893177 -30.421676 -8.092288 12.188399 -11.230896 
-1.912686 0.672934 0.920686 94.330080 -2.955636 101.482907 1.955772 -3.081073 -26.857644 -6.759354 5.985652 81.197271 -1.975134 5.788370 -8.754874 0.000000 -0.000000 0.000000 0.107443 3.390971 -23.311801 -1.537925 -5.193031 50.693361 -1.376726 -10.180773 -34.867151 0.000000 -0.000000 0.000000 2.105379 -1.413174 29.413565 2.444697 -0.862854 -5.552604 -0.073514 -1.026197 -0.117608 -4.239759 -0.923667 -22.162024 -1.277718 -2.885070 -3.525240 -28.340996 1.417607 0.933397 -49.064684 1.926990 10.908519 19.584750 -77.178281 -3.959029 12.816697 -14.003545 -22.595181 26.083388 0.521034 0.013787 54.347901 -8.267195 12.010203 -58.681003 70.478424 -41.798715 -7.462049 13.639921 -10.599973 
-1.794123 0.675179 0.917116 92.589602 -4.389153 100.954723 5.647823 -1.415493 -39.728620 -3.977249 11.571170 81.851286 1.175452 7.122777 -12.745226 0.000000 -0.000000 0.000000 -0.085341 0.717694 -12.778272 -0.965063 -0.795629 47.139119 0.757999 -8.407039 -33.519955 0.000000 -0.000000 0.000000 0.864667 2.004974 27.748353 1.419235 -1.775673 -4.884165 -0.673062 0.364713 -0.188516 -3.144470 -3.776711 -19.946306 0.686830 -2.653520 -3.912078 -26.360379 4.042008 2.802366 -46.761956 9.137112 8.926726 -14.637811 -82.301133 28.947182 13.535252 -14.662614 -28.330504 21.017163 0.995617 -0.549033 58.051824 -5.371710 12.274860 -95.762170 76.841709 -77.348385 -7.517075 14.615051 -11.317108 
-1.637467 0.680416 0.913292 90.149335 -6.650760 100.209375 8.966850 0.123841 -49.147481 -4.975783 14.815163 68.591045 0.374856 4.074812 -13.585524 0.000000 -0.000000 0.000000 -3.925116 -2.239247 -2.921374 -0.229149 5.215941 47.109421 6.588428 -1.636690 -19.834060 0.000000 -0.000000 0.000000 -1.714827 7.525301 24.678904 0.707983 -2.117326 -2.511586 -0.661248 1.884641 -0.697645 -3.118071 -6.896620 -15.614758 3.062903 -4.822033 -5.345099 -21.838688 6.813877 4.479436 -47.031179 16.347076 8.334906 -95.764397 -82.279066 111.438971 13.207518 -15.898536 -30.953447 16.110671 0.143189 -1.017482 58.865361 -4.735850 11.146323 -148.630286 72.540587 -128.723602 -6.390547 15.989366 -11.988202 
-1.540064 0.682930 0.910338 89.490589 -7.607373 99.208008 11.059558 -1.114297 -50.177743 -7.461892 12.218276 54.828579 -3.175282 1.741854 -9.881258 0.000000 -0.000000 0.000000 -5.585370 -2.481360 1.327422 -0.478022 8.031798 49.066458 8.130929 0.521680 -8.379951 0.000000 -0.000000 0.000000 -3.026315 10.147844 23.448868 0.691438 -1.992105 -1.252376 -0.221784 1.869015 -1.115169 -3.743862 -8.076810 -12.145614 4.298399 -5.936872 -6.659964 -19.632939 8.043280 5.995925 -48.881865 19.122241 7.512832 -116.084764 -80.293281 133.391261 12.421394 -16.243912 -31.403608 14.514358 -0.712655 -1.235043 58.583664 -5.148585 10.277901 -157.970254 69.455614 -137.040598 -6.000848 16.663825 -11.863421 
-1.409923 0.684680 0.901104 89.565158 -8.507856 97.485012 13.688818 -5.419219 -47.269510 -7.989069 4.014730 36.507469 -7.941962 2.660788 -1.286390 0.000000 -0.000000 0.000000 -5.339046 -1.741015 3.988456 -1.734903 9.668649 56.656742 5.018038 -4.206576 -6.049057 0.000000 -0.000000 0.000000 -5.004632 11.495263 21.602011 0.910647 -1.389855 0.558243 0.272983 1.127770 -1.201673 -3.528203 -8.145628 -8.414186 5.082396 -6.820114 -7.638109 -18.467230 10.101731 7.572581 -50.827187 20.056210 6.626986 -134.598495 -78.658531 154.866469 12.850312 -15.681470 -33.510766 14.541054 -1.658577 -1.374624 58.738127 -6.459477 10.409467 -157.259824 70.903781 -136.108593 -7.145120 16.293267 -14.276600 
-1.281666 0.685723 0.884055 89.381767 -8.887840 95.289389 15.013680 -8.458490 -42.438914 -6.093283 -2.002149 28.468730 -8.431932 4.347983 -0.765390 0.000000 -0.000000 0.000000 -3.927250 -0.407416 2.427342 -4.142723 8.045017 70.455980 0.873866 -11.683092 -11.565146 0.000000 -0.000000 0.000000 -6.982968 10.479196 20.634622 1.048248 -0.426876 1.737868 0.265909 0.752015 -0.818410 -2.292812 -7.160655 -6.668492 5.151511 -6.928489 -6.962044 -19.564509 11.919004 7.594450 -51.118196 18.420888 6.800030 -151.076658 -77.533463 173.986698 13.233100 -14.659009 -34.797104 17.079203 -2.552587 -1.186222 58.780569 -8.581888 11.187393 -141.864484 77.124810 -121.162373 -7.257063 15.288513 -15.807865 
-1.161347 0.685485 0.860898 88.850679 -9.379417 92.839299 15.291922 -7.358219 -39.785238 -9.094883 -3.001305 37.083416 -5.579270 2.255700 -11.677046 0.000000 -0.000000 0.000000 -3.220248 1.642588 -3.817770 -4.222247 4.950666 86.386700 -0.312502 -14.327819 -16.626994 0.000000 -0.000000 0.000000 -8.848160 8.555691 23.129620 1.051415 -0.189049 0.526929 0.152401 0.475331 0.058590 -1.249972 -5.504831 -7.671250 4.580206 -6.271122 -5.336834 -22.374890 11.929997 5.723115 -50.433053 14.731562 8.115284 -164.822406 -76.681869 -171.924045 13.611943 -13.609514 -35.694768 20.532732 -3.289106 -0.992697 58.423386 -10.476191 11.921224 -87.164206 80.826731 -68.431959 -6.746545 14.210197 -15.102679 
-1.052102 0.680515 0.840938 90.318534 -10.281563 89.846795 14.570890 -4.364473 -36.505168 -15.207982 -4.959297 48.510740 -5.243305 -1.662795 -20.812763 0.000000 -0.000000 0.000000 -3.663722 1.653923 -14.705299 -2.425723 0.364881 98.685133 0.622559 -11.219284 -21.040054 0.000000 -0.000000 0.000000 -10.081185 5.899157 29.057091 0.935842 -1.539129 -0.430556 -0.028667 -0.547859 0.283897 -0.634563 -1.655454 -12.149689 3.592097 -6.600072 -3.770085 -26.319600 8.465328 2.353426 -47.994379 8.712227 10.360273 178.758922 -76.669418 -156.239023 14.192377 -13.566114 -34.235758 24.725187 -2.694269 -0.709104 57.665540 -11.603185 11.582660 -43.478059 73.328207 -28.278531 -8.494466 13.228825 -14.053214 
-0.918039 0.668490 0.827272 92.728990 -10.258006 86.623216 13.799844 -0.285873 -25.686656 -19.072812 -10.549261 52.076354 -3.152282 -3.299076 -31.791854 0.000000 -0.000000 0.000000 -5.628629 -0.793418 -31.121332 -1.148373 -6.137280 102.063159 2.460773 -6.616004 -24.978648 0.000000 -0.000000 0.000000 -9.062246 0.563020 35.389437 -0.095485 -2.436940 -0.189274 -0.879005 -2.370736 -0.750173 -2.291523 2.450769 -15.707878 3.140240 -6.555120 -3.319492 -28.347066 1.304398 1.084181 -44.870768 -1.482699 10.840632 157.968738 -76.259630 -136.781103 16.202268 -13.685315 -29.976296 27.441047 -1.487909 1.315531 56.729310 -14.192601 9.382311 -28.493275 64.770838 -18.201528 -12.594574 13.124122 -14.659362 
-0.808878 0.653528 0.824669 94.714347 -9.534853 85.363676 14.493558 2.696849 -14.956444 -18.080444 -15.534625 49.253133 -1.907312 -2.151615 -38.319327 0.000000 -0.000000 0.000000 -7.959677 -3.891363 -42.043839 -2.240721 -10.880271 95.380593 3.721009 -5.512901 -26.868641 0.000000 -0.000000 0.000000 -7.322538 -4.455410 38.444331 -1.001666 -2.233307 -2.799495 -1.217605 -3.571888 0.180600 -4.769870 3.074245 -16.278786 3.157936 -5.505701 -2.561986 -27.001704 -1.180076 0.428934 -45.172491 -9.632500 9.306076 151.801805 -75.056981 -130.713081 16.416698 -14.645086 -30.689650 25.954007 -3.356337 2.599530 55.936395 -16.988813 7.434790 -23.029231 65.597420 -12.712629 -12.119224 14.239568 -15.571564 
-0.698121 0.632472 0.830462 94.619469 -9.095192 85.288781 15.834035 3.206164 -5.240971 -16.805766 -20.446608 46.895616 -5.949025 -1.589074 -36.398113 0.000000 -0.000000 0.000000 -9.741663 -4.963103 -48.588981 -3.006953 -14.816907 82.737556 4.518960 -4.573399 -26.363339 0.000000 -0.000000 0.000000 -5.851251 -8.111766 39.222154 -1.882448 -1.799103 -3.857513 -1.459368 -3.696813 0.395809 -6.548843 3.727735 -16.571809 3.023549 -4.827333 -2.779971 -26.011862 -1.373587 -0.373879 -45.144811 -13.339614 7.235697 143.775781 -73.023244 -122.427151 14.865092 -16.298200 -31.016280 24.206120 -4.462344 3.781987 54.771471 -17.682329 5.524816 -24.209671 67.928026 -11.380043 -10.810696 15.135160 -14.745883 
-0.584001 0.604031 0.842689 91.174916 -9.700360 85.427925 14.312810 1.166274 2.046171 -15.494715 -22.955011 48.855725 -13.657300 -0.435899 -22.197136 0.000000 -0.000000 0.000000 -8.850329 -3.141219 -50.120786 -3.928912 -16.461711 70.820006 2.164228 -6.034504 -22.319531 0.000000 -0.000000 0.000000 -5.240430 -8.932519 38.538255 -2.930046 -0.788154 -2.602888 -2.060226 -3.040232 -0.416939 -7.045991 5.064273 -16.575640 2.398454 -5.284020 -3.469634 -25.624483 -0.855542 -0.824580 -42.860204 -11.091568 5.774323 119.481511 -72.042758 -99.992370 13.915018 -17.049819 -30.002598 23.758626 -2.921241 3.583254 53.286439 -15.453867 5.094002 -31.492097 67.511875 -17.753234 -11.340213 14.319389 -15.924792 
-0.467002 0.572359 0.855054 85.959461 -11.206966 85.746606 8.909566 -1.212354 4.611569 -14.915493 -23.394539 54.179996 -13.929026 1.559055 -1.264228 0.000000 -0.000000 0.000000 -5.244175 -1.691868 -47.855303 -6.232446 -16.315239 68.378546 -3.601077 -10.013361 -19.920232 0.000000 -0.000000 0.000000 -4.557106 -7.398682 37.431515 -3.947369 0.706239 -2.826321 -2.656228 -2.214975 -0.072051 -7.318412 3.830508 -15.367353 1.254030 -4.707908 -3.770599 -25.874223 0.077223 -1.218845 -39.979657 -6.210659 4.388437 75.074860 -68.679107 -60.391756 13.751329 -16.003191 -26.862753 23.439171 0.195301 1.600451 50.946660 -11.826200 6.214401 -42.265966 65.823353 -28.352861 -10.213046 14.416564 -13.838935 
-0.351606 0.541073 0.861812 79.411065 -12.370198 87.615953 3.053242 -3.794227 1.083382 -13.809699 -17.841648 61.806075 -7.095617 4.601147 3.348138 0.000000 -0.000000 0.000000 -1.782928 -0.102835 -42.332233 -6.162659 -14.277844 69.928726 -5.360587 -12.950799 -24.483531 0.000000 -0.000000 0.000000 -3.349216 -4.003719 34.879981 -4.063439 2.121959 -3.657631 -2.811227 -1.067084 1.116898 -7.219213 1.404806 -14.268300 -0.833145 -3.673744 -3.887639 -26.678407 0.098183 -1.363608 -37.377618 -0.942834 2.652270 41.957053 -55.508046 -36.218908 13.701272 -14.546667 -22.055770 22.991610 4.152524 -1.088414 46.641864 -6.621946 8.578449 -54.682419 63.963734 -41.744258 -7.532924 15.017447 -9.650179 
-0.241166 0.507452 0.864120 71.444216 -12.208080 90.953589 1.098505 -5.666526 -8.767623 -9.086783 -7.010050 70.296503 -0.340876 7.713437 -0.180793 0.000000 -0.000000 0.000000 0.767421 1.949260 -34.269482 -2.768280 -10.640475 67.751150 -6.055448 -13.668212 -31.623847 0.000000 -0.000000 0.000000 -2.714914 0.691662 32.240494 -3.472012 3.201834 -4.073203 -2.283159 0.181893 1.275189 -5.986595 1.021842 -14.819975 -3.620858 -3.499969 -2.762772 -27.036091 0.945024 -1.502193 -35.643595 4.974962 0.048127 27.242330 -42.071002 -28.967660 9.102094 -14.054944 -15.859250 22.616895 8.294800 -2.903992 42.105812 2.095879 10.189970 -64.506883 62.880911 -51.826929 -5.292311 15.509251 -6.946795 
-0.135097 0.469354 0.866058 63.669067 -10.420257 94.383940 3.704136 -5.311249 -22.560923 -6.537213 1.054365 78.767781 2.458149 6.691157 -6.267581 0.000000 -0.000000 0.000000 2.712026 1.664117 -25.353025 0.326957 -7.271042 63.258327 -6.219282 -11.499566 -36.507308 0.000000 -0.000000 0.000000 -2.713382 5.364081 30.642436 -2.805664 3.606307 -5.001580 -1.512309 2.153935 0.605029 -4.446052 2.288548 -16.016361 -5.755223 -4.144098 -0.490473 -24.369134 3.984259 -1.304762 -36.863777 12.513791 -2.567091 19.665058 -39.607090 -19.710724 4.729527 -13.396618 -11.717024 20.374562 11.257539 -4.352522 42.320502 11.999452 9.302758 -72.074028 65.074312 -56.681707 -3.567620 16.192401 -6.865701 
